HIERARCHY
ROOT Hips
{
  OFFSET 363.916 89.4452 202.859
  CHANNELS 6 Xposition Yposition Zposition Zrotation Xrotation Yrotation
  JOINT RightUpLeg
  {
    OFFSET -9.23154 -1.41984 0.0580437
    CHANNELS 6 Xposition Yposition Zposition Zrotation Xrotation Yrotation
    JOINT RightLeg
    {
      OFFSET 0.0758713 -41.8911 0.179098
      CHANNELS 6 Xposition Yposition Zposition Zrotation Xrotation Yrotation
      JOINT RightFoot
      {
        OFFSET -0.0130714 -43.0092 0.527065
        CHANNELS 6 Xposition Yposition Zposition Zrotation Xrotation Yrotation
        End Site
        {
          OFFSET 0 -7.69 17.5
        }
      }
    }
  }
  JOINT LeftUpLeg
  {
    OFFSET 9.19333 -1.7604 -0.07603
    CHANNELS 6 Xposition Yposition Zposition Zrotation Xrotation Yrotation
    JOINT LeftLeg
    {
      OFFSET -0.0291634 -41.8584 -0.150428
      CHANNELS 6 Xposition Yposition Zposition Zrotation Xrotation Yrotation
      JOINT LeftFoot
      {
        OFFSET 0.141288 -40.5593 0.46362
        CHANNELS 6 Xposition Yposition Zposition Zrotation Xrotation Yrotation
        End Site
        {
          OFFSET 0 -7.69 17.5
        }
      }
    }
  }
  JOINT Spine
  {
    OFFSET 0.210641 14.2925 0.0476591
    CHANNELS 6 Xposition Yposition Zposition Zrotation Xrotation Yrotation
    JOINT Spine1
    {
      OFFSET 0.127582 9.71293 0.00702011
      CHANNELS 6 Xposition Yposition Zposition Zrotation Xrotation Yrotation
      JOINT Spine2
      {
        OFFSET 0.0548246 10.1184 0.000188243
        CHANNELS 6 Xposition Yposition Zposition Zrotation Xrotation Yrotation
        JOINT Spine3
        {
          OFFSET 0.0655353 9.71202 0.0180752
          CHANNELS 6 Xposition Yposition Zposition Zrotation Xrotation Yrotation
          JOINT Neck
          {
            OFFSET 0.298473 10.3734 0.0736415
            CHANNELS 6 Xposition Yposition Zposition Zrotation Xrotation Yrotation
            JOINT Head
            {
              OFFSET 0.280613 9.47889 0.0401358
              CHANNELS 6 Xposition Yposition Zposition Zrotation Xrotation Yrotation
              End Site
              {
                OFFSET 0 15.95 0
              }
            }
          }
          JOINT RightShoulder
          {
            OFFSET -3.14668 6.92606 0.0342591
            CHANNELS 6 Xposition Yposition Zposition Zrotation Xrotation Yrotation
            JOINT RightArm
            {
              OFFSET -12.7049 -0.00605603 0.0442556
              CHANNELS 6 Xposition Yposition Zposition Zrotation Xrotation Yrotation
              JOINT RightForeArm
              {
                OFFSET -26.5018 -0.160471 0.0181642
                CHANNELS 6 Xposition Yposition Zposition Zrotation Xrotation Yrotation
                JOINT RightHand
                {
                  OFFSET -26.0023 -0.0211725 -0.0218708
                  CHANNELS 6 Xposition Yposition Zposition Zrotation Xrotation Yrotation
                  JOINT RightHandThumb1
                  {
                    OFFSET -2.48905 0.190105 3.12053
                    CHANNELS 6 Xposition Yposition Zposition Zrotation Xrotation Yrotation
                    JOINT RightHandThumb2
                    {
                      OFFSET -3.68274 0 0
                      CHANNELS 6 Xposition Yposition Zposition Zrotation Xrotation Yrotation
                      JOINT RightHandThumb3
                      {
                        OFFSET -2.55832 0 0
                        CHANNELS 6 Xposition Yposition Zposition Zrotation Xrotation Yrotation
                        End Site
                        {
                          OFFSET -2.194 0 0
                        }
                      }
                    }
                  }
                  JOINT RightInHandIndex
                  {
                    OFFSET -3.22368 0.508421 1.97842
                    CHANNELS 6 Xposition Yposition Zposition Zrotation Xrotation Yrotation
                    JOINT RightHandIndex1
                    {
                      OFFSET -5.21684 -0.091368 0.999158
                      CHANNELS 6 Xposition Yposition Zposition Zrotation Xrotation Yrotation
                      JOINT RightHandIndex2
                      {
                        OFFSET -3.61937 0 0
                        CHANNELS 6 Xposition Yposition Zposition Zrotation Xrotation Yrotation
                        JOINT RightHandIndex3
                        {
                          OFFSET -2.0521 0 0
                          CHANNELS 6 Xposition Yposition Zposition Zrotation Xrotation Yrotation
                          End Site
                          {
                            OFFSET -1.805 0 0
                          }
                        }
                      }
                    }
                  }
                  JOINT RightInHandMiddle
                  {
                    OFFSET -3.38211 0.517263 0.756737
                    CHANNELS 6 Xposition Yposition Zposition Zrotation Xrotation Yrotation
                    JOINT RightHandMiddle1
                    {
                      OFFSET -5.17411 -0.084 0.313895
                      CHANNELS 6 Xposition Yposition Zposition Zrotation Xrotation Yrotation
                      JOINT RightHandMiddle2
                      {
                        OFFSET -3.94947 0 0
                        CHANNELS 6 Xposition Yposition Zposition Zrotation Xrotation Yrotation
                        JOINT RightHandMiddle3
                        {
                          OFFSET -2.47579 0 0
                          CHANNELS 6 Xposition Yposition Zposition Zrotation Xrotation Yrotation
                          End Site
                          {
                            OFFSET -1.975 0 0
                          }
                        }
                      }
                    }
                  }
                  JOINT RightInHandRing
                  {
                    OFFSET -3.36516 0.537895 -0.128947
                    CHANNELS 6 Xposition Yposition Zposition Zrotation Xrotation Yrotation
                    JOINT RightHandRing1
                    {
                      OFFSET -4.63474 -0.022105 -0.478947
                      CHANNELS 6 Xposition Yposition Zposition Zrotation Xrotation Yrotation
                      JOINT RightHandRing2
                      {
                        OFFSET -3.44238 0 0
                        CHANNELS 6 Xposition Yposition Zposition Zrotation Xrotation Yrotation
                        JOINT RightHandRing3
                        {
                          OFFSET -2.3881 0 0
                          CHANNELS 6 Xposition Yposition Zposition Zrotation Xrotation Yrotation
                          End Site
                          {
                            OFFSET -1.857 0 0
                          }
                        }
                      }
                    }
                  }
                  JOINT RightInHandPinky
                  {
                    OFFSET -3.16105 0.469368 -1.20179
                    CHANNELS 6 Xposition Yposition Zposition Zrotation Xrotation Yrotation
                    JOINT RightHandPinky1
                    {
                      OFFSET -4.14105 -0.022105 -1.09053
                      CHANNELS 6 Xposition Yposition Zposition Zrotation Xrotation Yrotation
                      JOINT RightHandPinky2
                      {
                        OFFSET -2.75653 0 0
                        CHANNELS 6 Xposition Yposition Zposition Zrotation Xrotation Yrotation
                        JOINT RightHandPinky3
                        {
                          OFFSET -1.74189 0 0
                          CHANNELS 6 Xposition Yposition Zposition Zrotation Xrotation Yrotation
                          End Site
                          {
                            OFFSET -1.645 0 0
                          }
                        }
                      }
                    }
                  }
                }
              }
            }
          }
          JOINT LeftShoulder
          {
            OFFSET 3.2692 6.92084 -0.0240804
            CHANNELS 6 Xposition Yposition Zposition Zrotation Xrotation Yrotation
            JOINT LeftArm
            {
              OFFSET 12.8742 -0.025743 -0.065488
              CHANNELS 6 Xposition Yposition Zposition Zrotation Xrotation Yrotation
              JOINT LeftForeArm
              {
                OFFSET 26.5138 0.000826062 -0.0614275
                CHANNELS 6 Xposition Yposition Zposition Zrotation Xrotation Yrotation
                JOINT LeftHand
                {
                  OFFSET 25.9956 -0.0689373 0.00603348
                  CHANNELS 6 Xposition Yposition Zposition Zrotation Xrotation Yrotation
                  JOINT LeftHandThumb1
                  {
                    OFFSET 2.48905 0.190105 3.12053
                    CHANNELS 6 Xposition Yposition Zposition Zrotation Xrotation Yrotation
                    JOINT LeftHandThumb2
                    {
                      OFFSET 3.68274 0 0
                      CHANNELS 6 Xposition Yposition Zposition Zrotation Xrotation Yrotation
                      JOINT LeftHandThumb3
                      {
                        OFFSET 2.55832 0 0
                        CHANNELS 6 Xposition Yposition Zposition Zrotation Xrotation Yrotation
                        End Site
                        {
                          OFFSET 2.194 0 0
                        }
                      }
                    }
                  }
                  JOINT LeftInHandIndex
                  {
                    OFFSET 3.22368 0.508421 1.97842
                    CHANNELS 6 Xposition Yposition Zposition Zrotation Xrotation Yrotation
                    JOINT LeftHandIndex1
                    {
                      OFFSET 5.21684 -0.091368 0.999158
                      CHANNELS 6 Xposition Yposition Zposition Zrotation Xrotation Yrotation
                      JOINT LeftHandIndex2
                      {
                        OFFSET 3.61937 0 0
                        CHANNELS 6 Xposition Yposition Zposition Zrotation Xrotation Yrotation
                        JOINT LeftHandIndex3
                        {
                          OFFSET 2.0521 0 0
                          CHANNELS 6 Xposition Yposition Zposition Zrotation Xrotation Yrotation
                          End Site
                          {
                            OFFSET 1.805 0 0
                          }
                        }
                      }
                    }
                  }
                  JOINT LeftInHandMiddle
                  {
                    OFFSET 3.38211 0.517263 0.756737
                    CHANNELS 6 Xposition Yposition Zposition Zrotation Xrotation Yrotation
                    JOINT LeftHandMiddle1
                    {
                      OFFSET 5.17411 -0.084 0.313895
                      CHANNELS 6 Xposition Yposition Zposition Zrotation Xrotation Yrotation
                      JOINT LeftHandMiddle2
                      {
                        OFFSET 3.94947 0 0
                        CHANNELS 6 Xposition Yposition Zposition Zrotation Xrotation Yrotation
                        JOINT LeftHandMiddle3
                        {
                          OFFSET 2.47579 0 0
                          CHANNELS 6 Xposition Yposition Zposition Zrotation Xrotation Yrotation
                          End Site
                          {
                            OFFSET 1.975 0 0
                          }
                        }
                      }
                    }
                  }
                  JOINT LeftInHandRing
                  {
                    OFFSET 3.36516 0.537895 -0.128947
                    CHANNELS 6 Xposition Yposition Zposition Zrotation Xrotation Yrotation
                    JOINT LeftHandRing1
                    {
                      OFFSET 4.63474 -0.022105 -0.478947
                      CHANNELS 6 Xposition Yposition Zposition Zrotation Xrotation Yrotation
                      JOINT LeftHandRing2
                      {
                        OFFSET 3.44238 0 0
                        CHANNELS 6 Xposition Yposition Zposition Zrotation Xrotation Yrotation
                        JOINT LeftHandRing3
                        {
                          OFFSET 2.3881 0 0
                          CHANNELS 6 Xposition Yposition Zposition Zrotation Xrotation Yrotation
                          End Site
                          {
                            OFFSET 1.857 0 0
                          }
                        }
                      }
                    }
                  }
                  JOINT LeftInHandPinky
                  {
                    OFFSET 3.16105 0.469368 -1.20179
                    CHANNELS 6 Xposition Yposition Zposition Zrotation Xrotation Yrotation
                    JOINT LeftHandPinky1
                    {
                      OFFSET 4.14105 -0.022105 -1.09053
                      CHANNELS 6 Xposition Yposition Zposition Zrotation Xrotation Yrotation
                      JOINT LeftHandPinky2
                      {
                        OFFSET 2.75653 0 0
                        CHANNELS 6 Xposition Yposition Zposition Zrotation Xrotation Yrotation
                        JOINT LeftHandPinky3
                        {
                          OFFSET 1.74189 0 0
                          CHANNELS 6 Xposition Yposition Zposition Zrotation Xrotation Yrotation
                          End Site
                          {
                            OFFSET 1.645 0 0
                          }
                        }
                      }
                    }
                  }
                }
              }
            }
          }
        }
      }
    }
  }
}
MOTION
Frames:	3
Frame Time:	0.00833333
356.643 87.4743 203.808 22.1961 2.22433 -142.301 -9.28556 -1.57228 0.0343574 35.5024 -32.2671 35.83 -0.0564749 -41.8716 0.112507 -6.57968 8.55535 -1.77754 1.10737 -43.1874 -0.918306 9.48325 17.426 55.2252 9.28178 -1.56407 0.0302749 30.6414 -12.0855 19.7397 0.028377 -41.882 0.0298339 -27.928 40.1065 32.2143 0.189985 -41.1534 -1.6676 8.09067 -26.9292 16.9384 -0.0513834 14.3025 0.106602 -2.48618 -2.57362 -8.74604 0.0011162 9.72169 0.0392966 -0.585263 -0.714416 -2.16676 0.0366486 10.1152 -0.0902857 -0.985358 -1.20571 -3.56513 0.0158449 9.72082 -0.0172033 -0.617264 -0.352612 2.76187 -0.0406425 10.3752 0.162688 -0.0137684 -6.05494 42.8163 -0.162273 9.43004 0.0390174 -9.94221 9.20837 26.6419 -3.18844 6.89231 0.033204 4.3111 4.90353 -2.29202 -12.7497 -0.0582064 0.110373 46.7796 -66.8332 19.9814 -26.2893 -0.0967669 -0.0993869 42.8789 14.015 114.875 -26.0037 -0.134007 0.074585 17.1774 -11.4074 10.6223 -2.48905 0.190105 3.12053 28.184 10.7294 19.1592 -3.68274 -5.68434e-14 -5.68434e-14 -6.8013e-15 -7.95139e-16 -10 -2.55832 0 0 2.80355e-15 1.59028e-15 -10 -3.22368 0.508421 1.97842 -8.54774e-15 1.59028e-15 7.95139e-16 -5.21684 -0.091368 0.999158 19.9818 0.871897 2.3964 -3.61937 0 -2.84217e-14 24 -3.97569e-16 3.18055e-15 -2.0521 0 0 20 0 -1.59028e-15 -3.38211 0.517263 0.756737 -8.54774e-15 1.59028e-15 7.95139e-16 -5.17411 -0.084 0.313895 20 1.59028e-15 -1.59028e-15 -3.94947 0 0 24 7.95139e-16 -1.59028e-15 -2.47579 -2.84217e-14 2.84217e-14 20 1.2424e-15 1.59028e-15 -3.36516 0.537895 -0.128947 -8.54774e-15 1.59028e-15 7.95139e-16 -4.63474 -0.022105 -0.478947 19.9748 -1.02565 -2.81938 -3.44238 5.68434e-14 -2.84217e-14 24 0 1.59028e-15 -2.3881 0 2.84217e-14 20 3.97569e-16 -0 -3.16105 0.469368 -1.20179 -8.54774e-15 1.59028e-15 7.95139e-16 -4.14105 -0.022105 -1.09053 19.7815 -3.00948 -8.30515 -2.75653 5.68434e-14 5.68434e-14 24 1.59028e-15 -3.97569e-16 -1.74189 0 -2.84217e-14 20 0 -0 3.22246 6.90676 -0.0347675 2.6957 -17.2704 -52.7566 12.8444 -0.078834 -0.0488591 -12.703 28.6823 -106.173 26.5374 -0.0738234 -0.0654616 46.9415 -9.25739 -34.0661 25.9354 -0.102339 -0.130771 -12.3714 -11.0105 -16.9959 2.48905 0.190105 3.12053 -28.184 10.7294 -19.1592 3.68274 -2.84217e-14 -2.84217e-14 -2.10798e-15 -6.36111e-15 10 2.55832 1.42109e-14 0 -3.87991e-15 -3.18055e-15 10 3.22368 0.508421 1.97842 -3.97569e-15 -3.18055e-15 1.59028e-15 5.21684 -0.091368 0.999158 -19.9818 0.871897 -2.3964 3.61937 4.26326e-14 -1.42109e-14 -24 -1.59028e-15 -0 2.0521 0 -1.42109e-14 -20 3.18055e-15 1.68967e-15 3.38211 0.517263 0.756737 -3.97569e-15 -3.18055e-15 1.59028e-15 5.17411 -0.084 0.313895 -20 -1.59028e-15 2.38542e-15 3.94947 -1.42109e-14 0 -24 3.18055e-15 -3.97569e-16 2.47579 0 5.68434e-14 -20 1.59028e-15 -0 3.36516 0.537895 -0.128947 -3.97569e-15 -3.18055e-15 1.59028e-15 4.63474 -0.022105 -0.478947 -19.9748 -1.02565 2.81938 3.44238 1.42109e-14 0 -24 1.59028e-15 5.2181e-16 2.3881 0 -2.84217e-14 -20 0 -3.97569e-16 3.16105 0.469368 -1.20179 -3.97569e-15 -3.18055e-15 1.59028e-15 4.14105 -0.022105 -1.09053 -19.7815 -3.00948 8.30515 2.75653 7.10543e-15 0 -24 7.95139e-16 -0 1.74189 0 0 -20 -1.59028e-15 -2.38542e-15 
356.679 87.4853 203.763 22.273 2.30013 -142.285 -9.28532 -1.57176 0.0249775 35.5759 -32.2659 35.844 -0.0530814 -41.8711 0.113147 -6.552 8.57814 -1.84063 1.15992 -43.2158 -0.889704 9.45615 17.3919 55.2117 9.23555 -1.58292 0.0656493 30.9262 -12.0078 19.3738 -0.0202074 -41.8818 0.039595 -28.3181 39.9229 32.4832 0.189929 -41.1329 -1.68216 8.13689 -26.83 16.9835 -0.047236 14.3026 0.104359 -2.52462 -2.64885 -8.77723 0.000910275 9.72155 0.0375769 -0.593568 -0.734256 -2.16615 0.0344442 10.1153 -0.0894561 -0.999648 -1.23863 -3.57563 0.0156208 9.72097 -0.0173241 -0.615581 -0.348233 2.76205 -0.0408457 10.3752 0.155092 -0.02434 -5.99878 42.7864 -0.157586 9.432 0.0382646 -9.9088 9.21959 26.635 -3.18948 6.89246 0.0313656 4.17458 4.89944 -2.27689 -12.7514 -0.0579404 0.101992 46.679 -66.8025 19.9265 -26.3024 -0.0823493 -0.0917848 41.9707 13.7399 115.053 -26.0024 -0.116398 0.0764535 17.1203 -11.5845 10.519 -2.48905 0.190105 3.12053 28.184 10.7294 19.1592 -3.68274 5.68434e-14 0 -1.42987e-15 -2.38542e-15 -10 -2.55832 0 0 3.15106e-15 -1.59028e-15 -10 -3.22368 0.508421 1.97842 5.26779e-15 0 7.95139e-16 -5.21684 -0.091368 0.999158 19.9818 0.871897 2.3964 -3.61937 -5.68434e-14 -2.84217e-14 24 3.97569e-16 -3.18055e-15 -2.0521 0 0 20 7.95139e-16 -0 -3.38211 0.517263 0.756737 5.26779e-15 0 7.95139e-16 -5.17411 -0.084 0.313895 20 0 -0 -3.94947 0 -2.84217e-14 24 3.97569e-16 -0 -2.47579 -2.84217e-14 -2.84217e-14 20 -1.98785e-16 -3.18055e-15 -3.36516 0.537895 -0.128947 5.26779e-15 0 7.95139e-16 -4.63474 -0.022105 -0.478947 19.9748 -1.02565 -2.81938 -3.44238 0 5.68434e-14 24 -2.38542e-15 -1.59028e-15 -2.3881 0 -2.84217e-14 20 0 -3.18055e-15 -3.16105 0.469368 -1.20179 5.26779e-15 0 7.95139e-16 -4.14105 -0.022105 -1.09053 19.7815 -3.00948 -8.30515 -2.75653 0 0 24 -1.59028e-15 -3.97569e-16 -1.74189 2.84217e-14 2.84217e-14 20 0 1.59028e-15 3.22074 6.90601 -0.0333265 2.70579 -17.2678 -52.7802 12.8417 -0.0728021 -0.0477932 -12.6782 28.4593 -106.251 26.5336 -0.0735859 -0.0576367 46.788 -9.35631 -33.9084 25.9377 -0.0990566 -0.126776 -12.4541 -11.1325 -17.3311 2.48905 0.190105 3.12053 -28.184 10.7294 -19.1592 3.68274 -1.42109e-14 -2.84217e-14 -1.61481e-15 0 10 2.55832 0 0 4.03702e-16 0 10 3.22368 0.508421 1.97842 -1.98785e-15 -7.95139e-16 -0 5.21684 -0.091368 0.999158 -19.9818 0.871897 -2.3964 3.61937 0 -1.42109e-14 -24 0 -2.38542e-15 2.0521 -2.84217e-14 0 -20 -1.59028e-15 -2.98177e-16 3.38211 0.517263 0.756737 -1.98785e-15 -7.95139e-16 -0 5.17411 -0.084 0.313895 -20 1.59028e-15 7.95139e-16 3.94947 2.13163e-14 -2.84217e-14 -24 -1.59028e-15 -1.59028e-15 2.47579 2.84217e-14 0 -20 0 1.78906e-15 3.36516 0.537895 -0.128947 -1.98785e-15 -7.95139e-16 -0 4.63474 -0.022105 -0.478947 -19.9748 -1.02565 2.81938 3.44238 0 2.84217e-14 -24 0 1.98785e-16 2.3881 2.84217e-14 0 -20 0 1.59028e-15 3.16105 0.469368 -1.20179 -1.98785e-15 -7.95139e-16 -0 4.14105 -0.022105 -1.09053 -19.7815 -3.00948 8.30515 2.75653 -3.55271e-14 -2.84217e-14 -24 0 -0 1.74189 2.84217e-14 0 -20 0 7.95139e-16 
356.714 87.4916 203.715 22.3732 2.37957 -142.3 -9.28454 -1.57107 0.0211222 35.6675 -32.2655 35.8734 -0.0497039 -41.8707 0.113737 -6.48779 8.59135 -1.89148 1.21185 -43.2411 -0.865187 9.39943 17.3443 55.1937 9.23596 -1.58019 0.0779162 31.0859 -11.983 19.3803 -0.0239279 -41.8819 0.0503026 -28.2824 39.9429 32.3499 0.20104 -41.1114 -1.6821 8.1552 -26.7792 17.03 -0.0438365 14.3027 0.10015 -2.54479 -2.74319 -8.76594 0.000704159 9.72142 0.0357645 -0.597338 -0.757707 -2.1655 0.0321088 10.1153 -0.0882631 -1.00631 -1.27708 -3.57337 0.0153579 9.72111 -0.017429 -0.61386 -0.344153 2.76221 -0.041031 10.3753 0.150435 -0.038384 -5.946 42.7427 -0.156711 9.43353 0.0374943 -9.88612 9.23957 26.6208 -3.19051 6.89263 0.0299061 4.04738 4.92037 -2.25297 -12.7588 -0.0515111 0.092566 46.5772 -66.8163 19.847 -26.3191 -0.0714219 -0.0740973 41.065 13.4286 115.273 -26.0013 -0.0930291 0.0532342 17.1445 -11.9039 10.5639 -2.48905 0.190105 3.12053 28.184 10.7294 19.1592 -3.68274 0 0 -1.40204e-16 -7.95139e-16 -10 -2.55832 5.68434e-14 -2.84217e-14 2.62407e-15 0 -10 -3.22368 0.508421 1.97842 -5.1684e-15 -7.95139e-16 -2.38542e-15 -5.21684 -0.091368 0.999158 19.9818 0.871897 2.3964 -3.61937 0 0 24 -1.49089e-16 -3.18055e-15 -2.0521 0 2.84217e-14 20 3.97569e-16 -1.59028e-15 -3.38211 0.517263 0.756737 -5.1684e-15 -7.95139e-16 -2.38542e-15 -5.17411 -0.084 0.313895 20 -7.95139e-16 -0 -3.94947 -5.68434e-14 0 24 -7.95139e-16 -0 -2.47579 0 0 20 -3.97569e-16 -0 -3.36516 0.537895 -0.128947 -5.1684e-15 -7.95139e-16 -2.38542e-15 -4.63474 -0.022105 -0.478947 19.9748 -1.02565 -2.81938 -3.44238 5.68434e-14 0 24 0 -7.95139e-16 -2.3881 2.84217e-14 0 20 3.97569e-16 -1.59028e-15 -3.16105 0.469368 -1.20179 -5.1684e-15 -7.95139e-16 -2.38542e-15 -4.14105 -0.022105 -1.09053 19.7815 -3.00948 -8.30515 -2.75653 0 -2.84217e-14 24 -3.18055e-15 -0 -1.74189 0 2.84217e-14 20 -7.95139e-16 7.95139e-16 3.21807 6.90533 -0.0331802 2.75233 -17.2484 -52.8618 12.8405 -0.0705568 -0.0463103 -12.7161 28.2017 -106.247 26.5305 -0.07336 -0.051467 46.6219 -9.46964 -33.7587 25.9401 -0.0963286 -0.122727 -12.533 -11.2136 -17.6709 2.48905 0.190105 3.12053 -28.184 10.7294 -19.1592 3.68274 0 -2.84217e-14 -2.46587e-16 -3.18055e-15 10 2.55832 -2.84217e-14 0 -2.57933e-15 3.18055e-15 10 3.22368 0.508421 1.97842 5.36719e-15 -7.95139e-16 -0 5.21684 -0.091368 0.999158 -19.9818 0.871897 -2.3964 3.61937 -2.13163e-14 2.84217e-14 -24 -1.59028e-15 3.18055e-15 2.0521 2.84217e-14 -1.42109e-14 -20 -3.18055e-15 1.53126e-15 3.38211 0.517263 0.756737 5.36719e-15 -7.95139e-16 -0 5.17411 -0.084 0.313895 -20 3.18055e-15 7.95139e-16 3.94947 0 0 -24 0 1.19271e-15 2.47579 0 0 -20 -1.59028e-15 1.19271e-15 3.36516 0.537895 -0.128947 5.36719e-15 -7.95139e-16 -0 4.63474 -0.022105 -0.478947 -19.9748 -1.02565 2.81938 3.44238 0 2.84217e-14 -24 -3.18055e-15 3.97569e-16 2.3881 2.84217e-14 -2.84217e-14 -20 1.59028e-15 -3.97569e-16 3.16105 0.469368 -1.20179 5.36719e-15 -7.95139e-16 -0 4.14105 -0.022105 -1.09053 -19.7815 -3.00948 8.30515 2.75653 -2.84217e-14 0 -24 -2.38542e-15 7.95139e-16 1.74189 0 0 -20 3.97569e-16 -0 
